<?xml version="1.0" encoding="UTF-8"?>
<svg width="126px" height="30px" viewBox="0 0 126 30" version="1.1" xmlns="http://www.w3.org/2000/svg" xmlns:xlink="http://www.w3.org/1999/xlink">
    <!-- Generator: Sketch 52.5 (67469) - http://www.bohemiancoding.com/sketch -->
    <title>琉璃社区</title>
    <desc>Created with Sketch.</desc>
    <g id="Page-1" stroke="none" stroke-width="1" fill="none" fill-rule="evenodd">
        <path d="M2.36,4.344 L2.872,4.344 C3.00000064,4.344 3.41599648,4.08800256 4.12,3.576 C5.20800544,2.74399584 6.32799424,2.328 7.48,2.328 C8.48267168,2.328 9.37866272,2.594664 10.168,3.128 C10.8720035,3.68266944 11.224,4.24799712 11.224,4.824 C11.224,5.74133792 10.6480058,6.2 9.496,6.2 L7.768,6.616 C8.15200192,7.19200288 8.344,7.89599584 8.344,8.728 L8.344,12.024 C9.06933696,12.1306672 9.71999712,12.3759981 10.296,12.76 C11.0000035,13.293336 11.352,13.8586637 11.352,14.456 C11.352,15.3733379 10.7760058,15.832 9.624,15.832 L8.344,16.152 L8.344,22.712 C8.344,22.8400006 8.33333344,22.9466662 8.312,23.032 C9.03733696,22.4559971 9.75199648,21.8266701 10.456,21.144 C10.9466691,20.6959978 11.2453328,20.472 11.352,20.472 C11.5226675,20.472 11.608,20.5573325 11.608,20.728 C11.608,21.2186691 11.2560035,22.1466598 10.552,23.512 C9.65599552,25.2613421 8.5146736,26.7866602 7.128,28.088 C5.97599424,29.1760054 5.01600384,29.72 4.248,29.72 C3.181328,29.72 2.28533696,29.4000032 1.56,28.76 C0.74932928,28.1199968 0.344,27.3520045 0.344,26.456 C0.344,25.7946634 0.5573312,25.2400022 0.984,24.792 C1.4106688,24.3439978 1.95466336,24.0666672 2.616,23.96 C3.44800416,23.8533328 3.864,23.5226694 3.864,22.968 L3.864,17.208 C2.86132832,17.1866666 2.05066976,16.9840019 1.432,16.6 C0.87733056,16.2799984 0.6,15.9386685 0.6,15.576 C0.6,15.234665 0.78133152,14.9253347 1.144,14.648 C1.65600256,14.1999978 2.10399808,13.976 2.488,13.976 L3,13.976 C3.1066672,13.976 3.39466432,13.8160016 3.864,13.496 L3.864,9.08 C3.864,8.6533312 3.71466816,8.14133632 3.416,7.544 C2.54132896,7.50133312 1.837336,7.30933504 1.304,6.968 C0.74933056,6.66933184 0.472,6.33866848 0.472,5.976 C0.472,5.61333152 0.65333152,5.29333472 1.016,5.016 C1.52800256,4.56799776 1.97599808,4.344 2.36,4.344 Z M2.616,26.456 C3.06400224,26.456 3.86399424,26.1253366 5.016,25.464 C5.10133376,25.4213331 5.17599968,25.3786669 5.24,25.336 C4.85599808,25.3146666 4.44000224,25.2933334 3.992,25.272 C3.39466368,25.2293331 2.9360016,25.208 2.616,25.208 C2.10399744,25.208 1.848,25.4213312 1.848,25.848 C1.848,26.2533354 2.10399744,26.456 2.616,26.456 Z M17.368,0.952 C18.0720035,0.952 18.8826621,1.29332992 19.8,1.976 C20.2906691,2.33866848 20.6533322,2.66933184 20.888,2.968 C22.4240077,2.62666496 23.9599923,2.456 25.496,2.456 C26.4133379,2.456 27.2453296,2.71199744 27.992,3.224 C28.6533366,3.73600256 28.984,4.26933056 28.984,4.824 C28.984,5.6773376 28.4400054,6.104 27.352,6.104 L24.504,6.712 C25.037336,7.05333504 25.6239968,7.46933088 26.264,7.96 C28.0773424,9.41067392 28.984,10.9573251 28.984,12.6 C28.984,14.3493421 28.280007,15.224 26.872,15.224 C26.3173306,15.224 25.7840026,14.7013386 25.272,13.656 C25.0586656,13.2933315 24.8666675,12.9520016 24.696,12.632 C24.3759984,12.9093347 24.0133354,13.143999 23.608,13.336 C20.9199866,14.7653405 18.4026784,15.48 16.056,15.48 C14.7759936,15.48 13.6453382,15.0213379 12.664,14.104 C11.8746627,13.2719958 11.48,12.226673 11.48,10.968 C11.48,10.4773309 11.9279955,9.84800384 12.824,9.08 C11.949329,9.05866656 11.245336,8.86666848 10.712,8.504 C10.2213309,8.24799872 9.976,7.93866848 9.976,7.576 C9.976,7.2559984 10.1359984,6.96800128 10.456,6.712 C10.9040022,6.30666464 11.2879984,6.104 11.608,6.104 L12.12,6.2 C12.5253354,6.2 13.7093235,5.74133792 15.672,4.824 C15.138664,4.24799712 14.872,3.75733536 14.872,3.352 C14.872,1.751992 15.7039917,0.952 17.368,0.952 Z M22.808,9.464 C22.274664,8.63199584 21.7840022,7.92800288 21.336,7.352 L18.584,7.928 C18.6053334,7.99200032 18.616,8.04533312 18.616,8.088 C18.616,8.34400128 18.349336,8.58933216 17.816,8.824 C15.8533235,9.84800512 14.872,10.5626646 14.872,10.968 C14.872,11.6293366 15.1599971,11.96 15.736,11.96 C16.6746714,11.96 18.114657,11.5546707 20.056,10.744 C21.2506726,10.2533309 22.1679968,9.82666848 22.808,9.464 Z M12.856,15.576 C13.5173366,15.576 14.3279952,15.9706627 15.288,16.76 C15.9920035,17.3146694 16.344,18.1786608 16.344,19.352 C16.344,21.4213437 15.981337,23.7679869 15.256,26.392 C14.6373302,28.6106778 14.0080032,29.72 13.368,29.72 C12.5573293,29.72 11.885336,29.4106698 11.352,28.792 C10.8613309,28.1519968 10.616,27.3306717 10.616,26.328 C10.616,25.5599962 10.7333322,25.1013341 10.968,24.952 L11.192,24.792 C11.4480013,24.6639994 11.746665,24.0133392 12.088,22.84 C12.429335,21.6239939 12.6,20.4613389 12.6,19.352 C12.6,18.3919952 12.429335,17.6773357 12.088,17.208 C11.8533322,16.9306653 11.736,16.6853344 11.736,16.472 C11.736,15.8746637 12.1093296,15.576 12.856,15.576 Z M17.496,16.088 C18.5413386,16.088 19.5439952,16.4933293 20.504,17.304 C21.1653366,17.8586694 21.496,19.373321 21.496,21.848 L21.72,26.712 C21.72,28.5466758 20.9306746,29.464 19.352,29.464 C18.0293267,29.464 17.368,28.6746746 17.368,27.096 L17.368,20.952 C17.368,19.6079933 17.0906694,18.6266698 16.536,18.008 C16.2586653,17.6453315 16.12,17.3786675 16.12,17.208 C16.12,16.4613296 16.5786621,16.088 17.496,16.088 Z M22.616,14.712 C23.4053373,14.712 24.2693286,15.2239949 25.208,16.248 C25.8053363,16.8880032 26.1679994,17.6666621 26.296,18.584 C26.8720029,19.0960026 27.522663,19.8213286 28.248,20.76 C29.5706733,22.3386746 30.232,24.0773238 30.232,25.976 C30.232,27.1706726 29.9226698,28.034664 29.304,28.568 C28.5999965,29.1653363 27.5653402,29.464 26.2,29.464 C24.6853258,29.464 23.6400029,28.9733382 23.064,27.992 C22.4239968,26.9466614 22.104,25.4000102 22.104,23.352 C22.104,22.9893315 22.1573328,22.3386714 22.264,21.4 C22.3280003,20.866664 22.36,20.2586701 22.36,19.576 C22.36,18.9573302 22.1360022,18.2320042 21.688,17.4 C21.3893318,16.7386634 21.24,16.2160019 21.24,15.832 C21.24,15.0853296 21.6986621,14.712 22.616,14.712 Z M26.2,25.336 C26.5626685,25.336 26.8506656,25.3040003 27.064,25.24 C27.3413347,25.1119994 27.48,24.9413344 27.48,24.728 C27.48,23.5119939 27.2453357,22.3493389 26.776,21.24 C26.6266659,20.8559981 26.4666675,20.5253347 26.296,20.248 C26.2746666,20.5680016 26.2213338,20.9093315 26.136,21.272 C25.943999,22.4026723 25.848,23.0959987 25.848,23.352 C25.848,24.6746733 25.9653322,25.336 26.2,25.336 Z M34.36,3.96 L34.872,3.96 C34.9786672,3.96 35.3626634,3.70400256 36.024,3.192 C37.0266717,2.38132928 38.0506614,1.976 39.096,1.976 C40.0986717,1.976 40.9946627,2.242664 41.784,2.776 C42.509337,3.309336 42.872,3.87466368 42.872,4.472 C42.872,4.62133408 42.8613334,4.7493328 42.84,4.856 C42.9253338,4.83466656 43.0106662,4.824 43.096,4.824 C43.1600003,4.824 43.2666659,4.84533312 43.416,4.888 C43.5866675,4.93066688 43.7359994,4.952 43.864,4.952 C44.2480019,4.952 45.5386557,4.64266976 47.736,4.024 C47.4799987,3.66133152 47.352,3.35200128 47.352,3.096 C47.352,1.75199328 48.0666595,1.08 49.496,1.08 C50.221337,1.08 51.0533286,1.42132992 51.992,2.104 C52.2693347,2.29600096 52.503999,2.47733248 52.696,2.648 C53.8266723,2.4346656 54.8399955,2.328 55.736,2.328 C57.336008,2.328 58.7973267,2.67999648 60.12,3.384 C61.0373379,3.89600256 61.496,4.46133024 61.496,5.08 C61.496,5.89067072 60.6213421,6.30666656 58.872,6.328 C58.7439994,6.328 58.6053341,6.33866656 58.456,6.36 C58.8186685,6.48800064 59.1386653,6.64799904 59.416,6.84 C60.1200035,7.39466944 60.472,8.0986624 60.472,8.952 L60.472,14.584 C60.472,15.842673 59.7253408,16.472 58.232,16.472 C57.357329,16.472 56.7813347,16.2586688 56.504,15.832 C55.3306608,15.8533334 54.1040064,15.9173328 52.824,16.024 C53.1866685,16.3226682 53.4319994,16.6319984 53.56,16.952 C54.9253402,16.8026659 56.0239958,16.728 56.856,16.728 C58.2426736,16.728 59.3093296,16.9733309 60.056,17.464 C60.7600035,17.9333357 61.112,18.8399933 61.112,20.184 L61.112,26.84 C61.112,27.8853386 60.9840013,28.6319978 60.728,29.08 C60.3653315,29.5920026 59.8640032,29.848 59.224,29.848 C57.7733261,29.848 55.9386778,29.4213376 53.72,28.568 C52.461327,28.0773309 51.5546694,27.6826682 51,27.384 C50.7653322,27.4480003 50.552001,27.48 50.36,27.48 C49.0799936,27.48 48.1413363,27.1066704 47.544,26.36 C46.9253302,25.6559965 46.616,24.8560045 46.616,23.96 C46.616,23.2986634 46.9999962,22.2213408 47.768,20.728 C47.234664,20.7920003 46.7653354,20.8346666 46.36,20.856 L46.232,27.576 C46.1679997,29.0053405 45.4640067,29.7626662 44.12,29.848 C43.4373299,29.848 42.925335,29.6346688 42.584,29.208 C42.1786646,28.7599978 41.976,28.2586694 41.976,27.704 C41.976,26.829329 42.0399994,25.6346742 42.168,24.12 C42.1893334,23.3733296 42.2106666,22.4773386 42.232,21.432 C42.1253328,21.6453344 42.0186672,21.8693322 41.912,22.104 C41.1013293,23.8106752 40.0773395,25.3146602 38.84,26.616 C37.7946614,27.682672 36.9306701,28.216 36.248,28.216 C35.181328,28.216 34.285337,27.8960032 33.56,27.256 C32.7493293,26.6159968 32.344,25.8480045 32.344,24.952 C32.344,24.3973306 32.5573312,23.9280019 32.984,23.544 C33.4106688,23.1599981 33.9546634,22.9253338 34.616,22.84 C35.4480042,22.7546662 35.864,22.4666691 35.864,21.976 L35.864,16.088 C34.8613283,16.0666666 34.0506698,15.8640019 33.432,15.48 C32.8773306,15.1599984 32.6,14.8186685 32.6,14.456 C32.6,14.114665 32.7813315,13.7946682 33.144,13.496 C33.6560026,13.0479978 34.1039981,12.824 34.488,12.824 L35,12.824 C35.1066672,12.824 35.3946643,12.6213354 35.864,12.216 L35.864,8.088 C35.864,7.83199872 35.8000006,7.5440016 35.672,7.224 C34.6906618,7.20266656 33.9013363,6.98933536 33.304,6.584 C32.7493306,6.28533184 32.472,5.95466848 32.472,5.592 C32.472,5.22933152 32.6533315,4.90933472 33.016,4.632 C33.5280026,4.18399776 33.9759981,3.96 34.36,3.96 Z M52.216,20.216 C52.1306662,20.3226672 52.0560003,20.4186662 51.992,20.504 C52.1200006,20.4826666 52.2373328,20.472 52.344,20.472 C53.2613379,20.472 54.2106618,20.9519952 55.192,21.912 C56.0453376,22.7226707 56.472,23.5333293 56.472,24.344 C56.472,25.6666733 56.0133379,26.328 55.096,26.328 C54.6693312,26.328 54.2960016,26.0826691 53.976,25.592 C53.8266659,25.7413341 53.6666675,25.8693328 53.496,25.976 C52.9413306,26.4240022 52.4400022,26.7546656 51.992,26.968 C53.1226723,27.1386675 54.3279936,27.224 55.608,27.224 C56.3546704,27.224 56.728,26.7653379 56.728,25.848 L56.728,21.976 C56.728,21.2079962 56.6746672,20.653335 56.568,20.312 C56.3973325,20.0773322 56.2053344,19.96 55.992,19.96 C55.3093299,19.96 54.0506758,20.0453325 52.216,20.216 Z M52.856,23.32 C52.5359984,22.7013302 52.205335,22.1786688 51.864,21.752 C51.6506656,21.5173322 51.5333334,21.304001 51.512,21.112 C50.4879949,22.3920064 49.976,23.1386656 49.976,23.352 C49.976,23.9280029 50.3493296,24.216 51.096,24.216 C51.3306678,24.216 51.9173286,23.9173363 52.856,23.32 Z M49.368,17.56 L49.368,17.464 C49.368,17.1653318 49.3040006,16.9306675 49.176,16.76 C49.1119997,16.6533328 49.0693334,16.5466672 49.048,16.44 C47.7253267,16.632001 46.7866694,16.728 46.232,16.728 C44.2266566,16.728 43.224,16.0133405 43.224,14.584 L43.224,12.536 C43.224,11.810663 42.9786691,11.2560019 42.488,10.872 C42.0613312,10.6159987 41.848,10.317335 41.848,9.976 C41.848,9.05866208 42.4346608,8.6 43.608,8.6 C44.674672,8.6 45.5066637,8.8133312 46.104,9.24 C46.5733357,9.64533536 46.8719994,10.4346608 47,11.608 C47.1066672,11.5439997 47.2239994,11.5013334 47.352,11.48 C48.1200038,11.287999 48.8453299,10.9786688 49.528,10.552 C48.4826614,9.89066336 47.5333376,9.35733536 46.68,8.952 C46.4666656,8.8453328 46.36,8.77066688 46.36,8.728 C46.36,8.21599744 46.7759958,7.96 47.608,7.96 C48.6106717,7.96 49.9759914,8.23733056 51.704,8.792 C51.8106672,8.59999904 51.864,8.4506672 51.864,8.344 C51.864,8.17333248 51.8106672,7.9280016 51.704,7.608 C51.6399997,7.43733248 51.608,7.2986672 51.608,7.192 C51.3519987,7.23466688 51.1066678,7.27733312 50.872,7.32 C48.6746557,7.7466688 46.9573395,7.96 45.72,7.96 C44.3333264,7.96 43.2560038,7.76800192 42.488,7.384 C41.7413296,6.99999808 41.368,6.57333568 41.368,6.104 C41.368,5.9973328 41.3786666,5.91200032 41.4,5.848 L41.112,5.848 L39.704,6.232 C39.896001,6.68000224 39.992,7.170664 39.992,7.704 L39.992,10.968 C40.5466694,11.0960006 41.0586643,11.3199984 41.528,11.64 C42.253337,12.173336 42.616,12.7386637 42.616,13.336 C42.616,14.2533379 42.0293392,14.712 40.856,14.712 L39.992,14.968 L39.992,21.368 C40.5893363,20.834664 41.1759971,20.2906694 41.752,19.736 C41.9013341,19.6079994 42.0186662,19.5013338 42.104,19.416 C42.0613331,19.2666659 42.0080003,19.1280006 41.944,19 C41.7946659,18.7013318 41.72,18.4346678 41.72,18.2 C41.72,17.9013318 41.8479987,17.6346678 42.104,17.4 C42.3813347,17.1866656 42.7119981,17.08 43.096,17.08 C43.9280042,17.08 44.5999974,17.3039978 45.112,17.752 C45.2613341,17.8800006 45.3893328,18.0079994 45.496,18.136 C46.0080026,18.0933331 46.7439952,17.9866675 47.704,17.816 C48.3013363,17.7093328 48.8559974,17.6240003 49.368,17.56 Z M54.8536874,12.8543007 C55.0175266,12.8341001 55.1409629,12.824 55.224,12.824 C55.6080019,12.824 55.9599984,12.8453331 56.28,12.888 L56.344,10.2 C56.344,9.53866336 56.2053347,8.89866976 55.928,8.28 C55.6293318,7.76799744 55.48,7.37333472 55.48,7.096 C55.48,6.8826656 55.5226662,6.7226672 55.608,6.616 C55.0533306,6.65866688 54.509336,6.72266624 53.976,6.808 C54.0186669,6.82933344 54.0506666,6.85066656 54.072,6.872 C54.6906698,7.27733536 55,7.81066336 55,8.472 C55,8.83466848 54.7760022,9.29333056 54.328,9.848 C55.0960038,10.2960022 55.48,10.7546643 55.48,11.224 C55.48,12.0346613 55.2666738,12.5786526 54.8400149,12.8559903 L54.8536874,12.8543007 Z M47.096,12.952 L47.096,13.208 C47.096,13.8053363 47.5546621,14.104 48.472,14.104 C48.7280013,14.104 49.3253286,13.9653347 50.264,13.688 C51.5866733,13.3893318 52.6639958,13.1653341 53.496,13.016 C53.0266643,12.9306662 52.5786688,12.717335 52.152,12.376 C52.0453328,12.2906662 51.9386672,12.2160003 51.832,12.152 C50.423993,13.1973386 49.3040042,13.72 48.472,13.72 C47.7679965,13.72 47.3093344,13.4640026 47.096,12.952 Z M34.232,24.952 C34.6586688,24.952 35.4266611,24.6213366 36.536,23.96 L36.568,23.928 C36.3546656,23.928 36.1413344,23.9173334 35.928,23.896 C35.3519971,23.8533331 34.9146682,23.832 34.616,23.832 C33.9546634,23.832 33.624,24.002665 33.624,24.344 C33.624,24.7493354 33.8266646,24.952 34.232,24.952 Z M69.72,0.824 C70.6373379,0.824 71.8426592,1.38932768 73.336,2.52 C74.4453389,3.41600448 75,4.397328 75,5.464 C75,6.44533824 74.4560054,6.94666656 73.368,6.968 C71.4693238,7.01066688 69.9973386,7.38399648 68.952,8.088 C67.885328,8.87733728 67.352,9.50666432 67.352,9.976 C67.352,10.3813354 67.6506637,10.584 68.248,10.584 C68.6106685,10.584 69.9226554,9.88000704 72.184,8.472 C72.8880035,7.95999744 73.5279971,7.704 74.104,7.704 C74.8933373,7.704 75.5866637,8.0239968 76.184,8.664 C76.8026698,9.21866944 77.112,9.85866304 77.112,10.584 C77.112,10.8186678 77.0800003,11.0533322 77.016,11.288 C77.1653341,11.1173325 77.335999,10.9680006 77.528,10.84 C77.9760022,10.5839987 78.466664,10.456 79,10.456 C79.0640003,10.456 79.1813325,10.4773331 79.352,10.52 C79.544001,10.5626669 79.7146659,10.584 79.864,10.584 C80.056001,10.584 80.7279942,10.2746698 81.88,9.656 L81.688,6.904 C81.6666666,5.6239936 81.389336,4.69600288 80.856,4.12 C80.3653309,3.62933088 80.12,3.20266848 80.12,2.84 C80.12,2.49866496 80.3226646,2.15733504 80.728,1.816 C81.1546688,1.4959984 81.7839958,1.336 82.616,1.336 C85.090679,1.336 86.5839974,2.21065792 87.096,3.96 C87.3306678,4.7066704 87.5226659,6.07199008 87.672,8.056 C88.9733398,8.22666752 90.1679946,8.58933056 91.256,9.144 C92.322672,9.74133632 92.856,10.3919965 92.856,11.096 C92.856,12.0560048 91.8533434,12.5573331 89.848,12.6 C89.1866634,12.6640003 88.5360032,12.7599994 87.896,12.888 C87.9600003,15.2346784 87.992,18.007984 87.992,21.208 C87.992,22.0613376 87.8426682,22.7119978 87.544,23.16 C87.9280019,23.1173331 88.2799984,23.096 88.6,23.096 C90.3706755,23.096 91.7253286,23.6186614 92.664,24.664 C93.4533373,25.6026714 93.848,26.5413286 93.848,27.48 C93.848,28.7173395 93.0586746,29.336 91.48,29.336 C91.287999,29.336 90.658672,29.1546685 89.592,28.792 C88.5893283,28.4933318 87.5440054,28.344 86.456,28.344 C85.0266595,28.344 83.4373421,28.5679978 81.688,29.016 C80.5359942,29.2293344 79.7573354,29.336 79.352,29.336 C76.5786528,29.2506662 75.1280006,27.7893475 75,24.952 C75,24.2053296 75.437329,23.5226698 76.312,22.904 C76.9306698,22.3919974 78.2426566,22.1253334 80.248,22.104 C81.5706733,22.104 82.232,21.3893405 82.232,19.96 C82.232,18.0826573 82.2000003,16.2053427 82.136,14.328 L82.104,14.328 C80.4186582,14.328 79.0853382,14.0826691 78.104,13.592 C77.2719958,13.1439978 76.8240003,12.6640026 76.76,12.152 C76.3333312,13.2400054 75.586672,14.5626589 74.52,16.12 C75.2666704,16.3333344 76.0133296,16.6853309 76.76,17.176 C77.9973395,17.9440038 78.616,18.7119962 78.616,19.48 C78.616,21.2933424 77.9440067,22.2 76.6,22.2 C75.7466624,22.2 75.0213363,21.6880051 74.424,20.664 C73.9119974,19.8106624 73.4000026,19.0746698 72.888,18.456 L72.856,18.488 C73.4320029,19.2986707 73.72,20.8773216 73.72,23.224 L73.72,26.968 C73.72,28.8026758 72.9306746,29.72 71.352,29.72 C69.943993,29.72 69.24,28.8880083 69.24,27.224 L69.24,22.744 C68.3439955,23.5546707 67.629336,23.96 67.096,23.96 C65.4319917,23.96 64.6,22.9573434 64.6,20.952 C64.6,20.0133286 66.1253181,18.1466806 69.176,15.352 C70.4560064,14.1999942 71.096,13.4000022 71.096,12.952 C71.096,12.8666662 70.9786678,12.824 70.744,12.824 C70.6159994,12.824 70.456001,12.8986659 70.264,13.048 C69.1333277,13.7520035 68.4186682,14.104 68.12,14.104 C66.1146566,14.104 65.112,12.9733446 65.112,10.712 C65.112,9.92266272 65.3253312,9.21866976 65.752,8.6 C66.2000022,7.93866336 67.2026589,7.1813376 68.76,6.328 C69.1653354,6.09333216 69.368,5.84800128 69.368,5.592 C69.368,5.35733216 69.1760019,5.06933504 68.792,4.728 C67.8319952,3.9813296 67.352,3.26667008 67.352,2.584 C67.352,1.4106608 68.1413254,0.824 69.72,0.824 Z M78.872,25.848 C79.5120032,25.848 80.7386576,25.4640038 82.552,24.696 C83.0426691,24.4826656 83.5013312,24.3013341 83.928,24.152 C83.4799978,24.1093331 83.0000026,24.0666669 82.488,24.024 C81.421328,23.8959994 80.5466701,23.832 79.864,23.832 C78.8399949,23.832 78.1040022,23.9493322 77.656,24.184 C77.3786653,24.376001 77.24,24.6319984 77.24,24.952 C77.24,25.5493363 77.7839946,25.848 78.872,25.848 Z M103.128,7.064 C103.192,7.55466912 103.224,8.066664 103.224,8.6 C103.224,13.9546934 103.181334,17.6773229 103.096,19.768 C103.032,22.2853459 103,24.1413274 103,25.336 C103,25.9973366 103.287997,26.328 103.864,26.328 C104.504003,26.328 105.879989,26.1360019 107.992,25.752 C113.048025,25.0693299 117.549314,24.728 121.496,24.728 C122.498672,24.728 123.437329,25.1013296 124.312,25.848 C125.016004,26.4880032 125.368,27.1919962 125.368,27.96 C125.368,28.9200048 124.866672,29.4213331 123.864,29.464 C119.533312,29.464 115.682684,29.5493325 112.312,29.72 C107.554643,29.8906675 104.322675,29.976 102.616,29.976 C99.6933187,29.976 98.232,28.7600122 98.232,26.328 C98.232,24.4719907 98.2533331,22.5626765 98.296,20.6 C98.4240006,18.7013238 98.488,14.989361 98.488,9.464 C98.488,7.88532544 98.1573366,6.46667296 97.496,5.208 C97.154665,4.674664 96.984,4.25866816 96.984,3.96 C96.984,2.87199456 97.5706608,2.328 98.744,2.328 C99.9173392,2.328 100.994662,2.82932832 101.976,3.832 C102.872004,3.76799968 105.559978,3.24533824 110.04,2.264 C113.154682,1.55999648 115.799989,1.208 117.976,1.208 C119.640008,1.208 121.175993,1.55999648 122.584,2.264 C123.522671,2.77600256 123.992,3.34133024 123.992,3.96 C123.992,4.85600448 123.117342,5.31466656 121.368,5.336 C117.805316,5.48533408 114.242684,5.826664 110.68,6.36 C107.778652,6.85066912 105.506675,7.096 103.864,7.096 C103.607999,7.096 103.362668,7.08533344 103.128,7.064 Z M106.488,9.464 C108.493343,9.464 111.181316,10.4133238 114.552,12.312 C115.746673,10.711992 116.344,9.30400608 116.344,8.088 C116.344,7.19199552 116.439999,6.62666784 116.632,6.392 C116.952002,6.11466528 117.357331,5.976 117.848,5.976 C118.424003,5.976 119.063996,6.26399712 119.768,6.84 C120.408003,7.41600288 120.728,8.00266368 120.728,8.6 C120.728,10.0720074 119.874675,12.045321 118.168,14.52 C121.45335,16.845345 123.096,19.3306534 123.096,21.976 C123.096,23.4693408 122.47734,24.216 121.24,24.216 C119.87466,24.216 118.54134,23.4800074 117.24,22.008 C116.258662,20.9839949 115.320004,20.0453376 114.424,19.192 C110.690648,23.2880205 108.002675,25.336 106.36,25.336 C104.610658,25.336 103.736,24.4186758 103.736,22.584 C103.736,21.9013299 103.981331,21.2186701 104.472,20.536 C104.920002,19.7893296 105.378664,19.3733338 105.848,19.288 L106.68,19.288 C107.533338,19.2453331 109.015989,18.1786771 111.128,16.088 C108.930656,14.146657 106.957342,12.6000058 105.208,11.448 C104.717331,11.1279984 104.472,10.8826675 104.472,10.712 C104.472,9.87999584 105.143993,9.464 106.488,9.464 Z" id="琉璃社区" fill="#F6674B"></path>
    </g>
</svg>